# xmcd CD database file
#
# Track frame offsets:
#	150
#	58079
#	144318
#	163349
#
# Disc length: 3119 seconds
#
# Revision: 0
# Processed by: cddbd v1.5.2PL0 Copyright (c) Steve Scherf et al.
# Submitted via: CDex 1.70beta2
#
DISCID=350c2d04
DTITLE=Ornette Coleman - At Tivoli 1965
DYEAR=1965
DGENRE=Jazz
TTITLE0=Lonely Woman
TTITLE1=Clergyman's Dream
TTITLE2=Sadness
TTITLE3=Falling Stars
EXTD=YEAR: 1965
EXTT0=
EXTT1=
EXTT2=
EXTT3=
PLAYORDER=
